<?xml version="1.0" encoding="UTF-8" standalone="no"?>
<svg
   height="24"
   viewBox="0 0 240 80"
   fill="none"
   version="1.1"
   id="svg12"
   sodipodi:docname="cc.svg"
   inkscape:version="1.1.2 (0a00cf5339, 2022-02-04)"
   xmlns:inkscape="http://www.inkscape.org/namespaces/inkscape"
   xmlns:sodipodi="http://sodipodi.sourceforge.net/DTD/sodipodi-0.dtd"
   xmlns="http://www.w3.org/2000/svg"
   xmlns:svg="http://www.w3.org/2000/svg">
  <defs
     id="defs16" />
  <sodipodi:namedview
     id="namedview14"
     pagecolor="#ffffff"
     bordercolor="#666666"
     borderopacity="1.0"
     inkscape:pageshadow="2"
     inkscape:pageopacity="0.0"
     inkscape:pagecheckerboard="0"
     showgrid="false"
     fit-margin-top="0"
     fit-margin-left="0"
     fit-margin-right="0"
     fit-margin-bottom="0"
     inkscape:zoom="6.4258329"
     inkscape:cx="197.87318"
     inkscape:cy="63.260282"
     inkscape:window-width="3840"
     inkscape:window-height="2100"
     inkscape:window-x="0"
     inkscape:window-y="0"
     inkscape:window-maximized="1"
     inkscape:current-layer="svg12" />
  <rect
     width="120"
     height="80"
     rx="4"
     fill="#ffffff"
     id="rect2"
     x="120"
     y="0" />
  <path
     fill-rule="evenodd"
     clip-rule="evenodd"
     d="m 217.5288,54.6562 v -0.9178 h -0.2398 l -0.2753,0.6314 -0.2759,-0.6314 h -0.2398 v 0.9178 h 0.1695 v -0.6925 l 0.2582,0.5972 h 0.1754 l 0.2589,-0.5985 v 0.6938 z m -1.5177,0 v -0.7615 h 0.3069 v -0.155 h -0.7819 v 0.155 h 0.3069 v 0.7615 z"
     fill="#f79e1b"
     id="path4" />
  <path
     fill-rule="evenodd"
     clip-rule="evenodd"
     d="m 169.6521,58.595 h 20.6958 V 21.4044 h -20.6958 z"
     fill="#ff5f00"
     id="path6" />
  <path
     fill-rule="evenodd"
     clip-rule="evenodd"
     d="m 218.2675,40.0003 c 0,13.0627 -10.5884,23.6517 -23.6504,23.6517 -5.5175,0 -10.5942,-1.8896 -14.6171,-5.0564 5.5011,-4.331 9.0339,-11.0508 9.0339,-18.5953 0,-7.5451 -3.5328,-14.2649 -9.0339,-18.5959 4.0229,-3.1668 9.0996,-5.0564 14.6171,-5.0564 13.062,0 23.6504,10.589 23.6504,23.6523 z"
     fill="#f79e1b"
     id="path8" />
  <path
     fill-rule="evenodd"
     clip-rule="evenodd"
     d="m 170.966,40.0003 c 0,-7.5451 3.5328,-14.2649 9.0339,-18.5959 -4.0229,-3.1668 -9.0996,-5.0564 -14.6171,-5.0564 -13.062,0 -23.6504,10.589 -23.6504,23.6523 0,13.0627 10.5884,23.6517 23.6504,23.6517 5.5175,0 10.5942,-1.8896 14.6171,-5.0564 -5.5011,-4.331 -9.0339,-11.0508 -9.0339,-18.5953 z"
     fill="#eb001b"
     id="path10" />
  <rect
     width="120"
     height="80"
     rx="4"
     fill="#ffffff"
     id="rect2-4"
     x="0"
     y="0" />
  <path
     fill-rule="evenodd"
     clip-rule="evenodd"
     d="m 86.666601,44.937499 3.6572,-9.875 2.0571,9.875 z m 14.285399,7.9 -5.143399,-25.675 h -7.0703 c -2.3858,0 -2.966,1.9134 -2.966,1.9134 l -9.5819,23.7616 h 6.6964 l 1.3401,-3.8131 h 8.1678 l 0.7533,3.8131 z"
     fill="#182e66"
     id="path4-8" />
  <path
     fill-rule="evenodd"
     clip-rule="evenodd"
     d="m 77.186601,33.571099 0.9086,-5.3271 c 0,0 -2.8056,-1.0815 -5.7304,-1.0815 -3.1617,0 -10.6693,1.4013 -10.6693,8.2113 0,6.4087 8.8116,6.4883 8.8116,9.8528 0,3.3646 -7.9037,2.7635 -10.5116,0.641 l -0.9479,5.5686 c 0,0 2.8443,1.4013 7.1921,1.4013 4.3472,0 10.907,-2.2831 10.907,-8.492 0,-6.4491 -8.8915,-7.0495 -8.8915,-9.8534 0,-2.8039 6.205,-2.4437 8.9314,-0.921 z"
     fill="#182e66"
     id="path6-1" />
  <path
     fill-rule="evenodd"
     clip-rule="evenodd"
     d="m 54.651701,52.837499 h -7.0326 l 4.3953,-25.675 h 7.0333 z"
     fill="#182e66"
     id="path8-2" />
  <path
     fill-rule="evenodd"
     clip-rule="evenodd"
     d="m 42.311301,27.162499 -6.3896,17.6588 -0.7554,-3.8028 7e-4,0.0014 -2.2556,-11.545 c 0,0 -0.272,-2.3124 -3.179,-2.3124 H 19.1709 l -0.1233,0.4341 c 0,0 3.230601,0.6703 7.009401,2.936 l 5.8223,22.3049 h 6.9824 l 10.6621,-25.675 z"
     fill="#182e66"
     id="path10-8" />
  <path
     fill-rule="evenodd"
     clip-rule="evenodd"
     d="m 34.285701,40.987499 -2.1323,-11.518 c 0,0 -0.2571,-2.307 -3.0052,-2.307 H 19.1641 l -0.1165,0.433 c 0,0 4.799101,1.0477 9.402801,4.9697 4.4001,3.7493 5.8353,8.4223 5.8353,8.4223 z"
     fill="#182e66"
     id="path12" />
</svg>
