<?xml version="1.0" encoding="UTF-8" standalone="no"?>
<svg
   height="24"
   viewBox="0 0 120 80"
   fill="none"
   version="1.1"
   id="svg14"
   sodipodi:docname="easy-credit.svg"
   inkscape:version="1.1.2 (0a00cf5339, 2022-02-04)"
   xmlns:inkscape="http://www.inkscape.org/namespaces/inkscape"
   xmlns:sodipodi="http://sodipodi.sourceforge.net/DTD/sodipodi-0.dtd"
   xmlns="http://www.w3.org/2000/svg"
   xmlns:svg="http://www.w3.org/2000/svg">
  <defs
     id="defs18" />
  <sodipodi:namedview
     id="namedview16"
     pagecolor="#ffffff"
     bordercolor="#666666"
     borderopacity="1.0"
     inkscape:pageshadow="2"
     inkscape:pageopacity="0.0"
     inkscape:pagecheckerboard="0"
     showgrid="false"
     inkscape:zoom="3.2129164"
     inkscape:cx="59.291925"
     inkscape:cy="49.954614"
     inkscape:window-width="3840"
     inkscape:window-height="2100"
     inkscape:window-x="0"
     inkscape:window-y="0"
     inkscape:window-maximized="1"
     inkscape:current-layer="svg14" />
  <rect
     width="120"
     height="80"
     rx="4"
     fill="white"
     id="rect2" />
  <g
     transform="matrix(0.20505907,0,0,0.20505907,27.430886,-55.690383)"
     id="layer1">
    <path
       d="m 70.213668,442.65488 c -5.685549,24.09335 -27.30847,42.01955 -53.181061,42.01955 -30.17577,0 -54.665992,-24.47239 -54.665992,-54.66153 0,-30.20699 24.490222,-54.67492 54.665992,-54.67492 21.199293,0 39.580337,12.05783 48.663837,29.68972 1.703435,3.7101 2.818248,7.95531 2.818248,13.19493 0,19.33532 -18.171459,27.60278 -25.979612,27.60278 -1.698976,0 -2.336649,-0.93198 -2.336649,-2.34111 0,-1.40912 0.637673,-3.58524 1.114813,-5.30651 l 8.552849,-37.87244 H 36.79602 l -1.859509,7.47817 c -4.410202,-6.55065 -10.626402,-9.98873 -18.117948,-9.98873 -17.74337087,0 -32.084331,16.98975 -32.084331,37.58705 0,15.12579 11.2061047,25.72989 24.1691555,25.72989 6.3767325,0 11.8482375,-3.74577 15.7277885,-8.1203 0.47714,5.4715 4.356691,8.1203 8.713382,8.1203 6.956436,0 25.551524,-5.21733 36.86911,-18.45685 z M 29.946606,425.56256 c 0,9.81928 -7.335472,20.26285 -17.324201,20.26285 -7.3310131,0 -11.68324478,-5.44921 -11.68324478,-12.78468 0,-9.36443 7.17048008,-19.9507 17.47581578,-19.9507 7.014406,0 11.53163,5.1326 11.53163,12.47253 z m 75.700294,112.39995 -3.66551,17.60959 c -5.310969,1.369 -12.802516,2.38571 -19.018715,2.38571 -26.140146,0 -41.11878,-15.46024 -41.11878,-37.77434 0,-26.95619 20.717693,-52.41853 51.161019,-52.41853 13.493706,0 21.836966,1.61425 26.666336,3.21066 l -3.29093,15.58063 c -6.48375,-2.14936 -13.33317,-2.75582 -20.030965,-2.75582 -21.725485,0 -32.191354,21.63184 -32.191354,36.96276 0,14.42123 9.190522,21.15916 22.153573,21.15916 7.277502,0 13.863816,-1.43142 19.335326,-3.95982 z m 76.12838,-138.65604 h 22.21154 l -39.74087,68.54319 -2.22962,3.68781 c -6.16269,10.68883 -13.01657,17.77458 -26.40325,17.77458 -5.2084,0 -9.24403,-0.61983 -12.53942,-1.44925 l 3.24188,-15.5405 c 1.96653,0.53957 4.19616,0.95428 6.85387,0.95428 5.94865,0 9.13701,-4.26751 12.21836,-9.98873 l 2.22963,-3.68781 -13.33317,-60.29357 h 21.2528 l 5.4715,38.22919 z m 160.02478,96.72122 h 11.9508 l 2.92081,-13.01656 22.04655,-5.92189 -4.20061,18.93845 h 14.4569 l -2.60867,14.64865 h -15.18821 l -3.61646,16.8426 c -0.90523,4.51722 -1.75249,7.54506 -1.75249,10.44357 0,4.08022 2.71123,6.75577 6.85388,6.75577 2.22962,0 4.56627,-0.93198 6.74685,-1.74803 l -2.33665,13.82815 c -4.4102,0.67781 -8.82041,1.15941 -12.96305,1.15941 -10.73343,0 -19.17925,-5.22179 -19.17925,-17.89945 0,-3.01 0.42363,-6.03337 1.85951,-12.4324 l 3.61199,-16.94962 h -11.15705 z m -21.41334,-25.21708 h 21.14133 l -3.24188,15.33091 h -21.14578 z m -5.36894,25.21708 h 21.14578 l -12.53942,60.53883 h -21.14132 z m -40.4811,60.53883 1.64992,-9.65429 c -5.57853,6.73348 -10.57289,11.04558 -22.21154,11.04558 -13.0121,0 -22.51923,-11.3934 -22.51923,-24.98966 0,-19.87044 9.98427,-38.33175 30.64845,-38.33175 10.57289,0 17.9039,4.64208 21.03876,11.14814 l 7.54505,-36.36076 h 20.55716 l -16.25398,78.06816 c -0.68672,3.60753 -1.06576,6.63091 -1.27534,9.07458 z m -11.47366,-14.64419 c 9.8817,0 15.77684,-10.92071 15.77684,-18.94291 0,-6.04229 -3.02784,-12.30308 -9.98873,-12.30308 -9.88171,0 -15.77684,9.40456 -15.77684,18.80913 0,7.44249 3.34444,12.43686 9.98873,12.43686 z m -45.42196,-2.09585 -2.65772,14.75121 c -7.33101,2.22071 -15.13916,3.38012 -21.14578,3.38012 -20.24055,0 -31.13005,-12.4324 -31.13005,-27.66076 0,-14.0511 9.29754,-35.66065 36.23144,-35.66065 15.93737,0 27.89263,8.01774 27.89263,26.37649 0,2.42583 -0.69118,7.76802 -1.5429,11.37555 h -42.87127 c 0.26756,6.50606 3.50498,11.62528 16.30749,11.62528 5.57853,0 13.12359,-1.39129 18.91616,-4.18724 z m -33.89479,-19.29073 h 25.65855 c 0,-6.50159 -2.55516,-11.95526 -10.25629,-11.95526 -9.02999,0 -13.91733,6.15823 -15.40226,11.95526 z m -43.77649,-24.50806 -2.33665,12.4324 c 3.61199,-7.09022 10.35884,-13.82369 18.9652,-13.82369 2.76028,0 6.05567,0.35228 8.81595,1.51169 l -4.72681,18.46131 c -2.70677,-2.09139 -5.73906,-2.54623 -9.66766,-2.54623 -8.82041,0 -14.07787,7.66545 -15.56726,16.61518 l -5.94864,27.88817 h -20.87823 l 12.74901,-60.53883 z M 76.483379,443.79645 c 5.364482,2.33665 11.157053,3.49605 16.945164,3.49605 3.402411,0 11.741217,-0.34782 11.741217,-5.34218 0,-8.6019 -24.967363,-4.18724 -24.967363,-24.17808 0,-14.17596 16.521535,-19.87043 30.545893,-19.87043 5.26191,0 12.59293,1.17724 20.13353,3.60308 l -4.41021,13.71666 c -5.36448,-2.21625 -10.46141,-3.37565 -16.73112,-3.37565 -4.67775,0 -9.774681,1.05684 -9.774681,5.23962 0,6.73347 26.135691,6.27863 26.135691,21.48914 0,14.97864 -12.64199,22.41667 -28.369777,22.66193 -9.137011,0.10702 -18.911695,-1.28426 -25.444502,-3.14823 z m -128.355162,-0.68673 -2.657715,14.75122 c -7.326554,2.21624 -15.085655,3.37565 -21.141322,3.37565 -20.187042,0 -31.13451,-12.42794 -31.13451,-27.65629 0,-14.04665 9.297544,-35.67849 36.231437,-35.67849 15.941832,0 27.892633,8.01774 27.892633,26.37203 0,2.44813 -0.686726,7.79031 -1.484932,11.39785 h -42.875725 c 0.214044,6.50605 3.455921,11.62081 16.258439,11.62081 5.578527,0 13.119125,-1.40912 18.911695,-4.18278 z m -33.894788,-19.29073 h 25.663006 c 0,-6.50605 -2.550693,-11.97309 -10.202773,-11.97309 -9.0835,0 -13.970842,6.17606 -15.460233,11.97309 z m 489.184601,38.10433 h 6.85387 c 4.0936,0 6.11364,1.63654 6.11364,5.0122 0,2.86284 -1.806,4.93193 -4.62425,4.93193 l 5.04788,7.87504 h -3.02783 l -4.99437,-7.87504 h -2.44367 v 7.87504 h -2.92527 z m 2.92527,7.66545 h 3.45146 c 2.23409,0 3.66551,-0.45484 3.66551,-2.77365 0,-2.03342 -1.806,-2.61313 -3.66551,-2.61313 h -3.45146 z m 2.92527,-13.94408 c 8.39232,0 15.19268,6.81374 15.19268,15.20605 0,8.39232 -6.80036,15.21052 -15.19268,15.21052 -8.39677,0 -15.25065,-6.8182 -15.25065,-15.21052 0,-8.39231 6.85388,-15.20605 15.25065,-15.20605 z m 0,28.13789 c 7.00995,0 12.26741,-5.6365 12.26741,-12.93184 0,-7.29088 -5.25746,-12.92737 -12.26741,-12.92737 -7.06792,0 -12.32984,5.63649 -12.32984,12.92737 0,7.29534 5.26192,12.93184 12.32984,12.93184"
       id="path33"
       style="fill:#1b62b7;fill-opacity:1;fill-rule:nonzero;stroke:none" />
  </g>
</svg>
