<?xml version="1.0" encoding="utf-8"?>
<!-- Generator: Adobe Illustrator 27.8.0, SVG Export Plug-In . SVG Version: 6.00 Build 0)  -->
<svg version="1.1" id="Favicon_Computop" xmlns="http://www.w3.org/2000/svg" xmlns:xlink="http://www.w3.org/1999/xlink" x="0px"
	 y="0px" viewBox="0 0 240 240" style="enable-background:new 0 0 240 240;" xml:space="preserve">
<style type="text/css">
	.st0{fill:url(#Background_00000149379865158375919340000000549205589431451283_);}
	.st1{fill:url(#Signet_Computop_00000106124131001080418040000005665055015452211379_);}
</style>
<linearGradient id="Background_00000044138195566133496010000001333784804167671705_" gradientUnits="userSpaceOnUse" x1="9.094947e-13" y1="-9.094947e-13" x2="240" y2="240">
	<stop  offset="0" style="stop-color:#131B32"/>
	<stop  offset="0.1814" style="stop-color:#121F38"/>
	<stop  offset="0.4327" style="stop-color:#0E2C4A"/>
	<stop  offset="0.7236" style="stop-color:#074068"/>
	<stop  offset="1" style="stop-color:#00588A"/>
</linearGradient>
<rect id="Background" x="0" style="fill:url(#Background_00000044138195566133496010000001333784804167671705_);" width="240" height="240"/>
<linearGradient id="Signet_Computop_00000038373934256592681320000004854102117506304671_" gradientUnits="userSpaceOnUse" x1="192.0452" y1="73.6795" x2="41.9008" y2="160.3654">
	<stop  offset="2.553960e-02" style="stop-color:#A5F729"/>
	<stop  offset="0.9161" style="stop-color:#009EE2"/>
</linearGradient>
<path id="Signet_Computop" style="fill:url(#Signet_Computop_00000038373934256592681320000004854102117506304671_);" d="M97.6,211
	c-7.3,0-13.8-1-19.2-3.1c-7.5-2.8-13.2-7.4-16.9-13.9c-3.6-6.1-5.2-13.5-5.4-21.4c-10.4-12.6-16.9-29-19-47.9
	c-2.7-24.5,6.8-49.8,26.8-71.1c0.1-0.1,0.1-0.1,0.2-0.2c31.4-29.5,57.1-25.1,64.2-23.1c17.7,5,27.7,15.7,29.7,31.6
	c0.3,2.4,0.4,4.9,0.4,7.4c21.9,3.8,38.1,16.4,40.9,18.6c4.3,3.1,5.6,7.4,3.4,11.7c-6.1,12.1-41.5,22.7-53.9,18.4
	c-4.8-1.7-7.1-5.5-6.1-10.2c0.6-2.9,1.6-6.4,2.6-10.1c2.1-7.5,4-14.8,4.8-21.7c-7.1-0.5-14.5,0.1-22.2,2.5
	c-17.5,5.5-32.7,17.4-45.4,35.3l0,0c-8.4,11.9-18.4,35.8-18.8,55.8c11,12.3,25.9,19.4,43.3,19.8c22,0.5,38.7-5.9,47.7-9.3
	c1.2-0.5,2.2-0.9,3.1-1.2c1.3-0.5,2.7-0.2,3.8,0.7c0.4,0.3,0.7,0.7,0.9,1.2c1,1.7,0.4,3.3,0.1,3.8c-0.2,0.5-0.6,0.9-1,1.2
	c-3.8,4-21.7,20.8-53.5,24.4C104.3,210.8,100.9,211,97.6,211z M64.6,181.5c0.7,3.2,1.8,6.1,3.4,8.7c6.3,10.6,19.4,14.8,39.2,12.6
	c12.4-1.4,22.5-5,30.3-8.9c-8.6,2.1-19.1,3.7-30.8,3.5C90.7,197,76.3,191.6,64.6,181.5z M69.2,59.1c-10.7,11.4-28,35-24.7,64.9
	c1.6,14.2,5.8,26.6,12.1,36.7c2.7-20,12-40.7,19.4-51.1c13.6-19.3,30.2-32.1,49.3-38.2c8.7-2.8,17.2-3.5,25-2.9
	c0.1-14.1-5.7-25.3-24.5-30.7C119.8,36.1,97.6,32.4,69.2,59.1z M157.6,77.2c-1,8.1-3.2,15.9-5.2,22.8c-1,3.7-1.9,6.9-2.5,9.6
	c-0.1,0.7-0.2,1,1.2,1.5c9.7,3.4,40.6-6.7,44.6-14.6c0.3-0.6,0.5-1-1.1-2.1c-0.1-0.1-0.2-0.1-0.3-0.2
	C193.4,93.3,178.2,81.1,157.6,77.2z"/>
</svg>
